# xmcd
# Track frame offsets:
# 150
# 12575
# 24462
# 37235
# 52755
# 65417
# 77754
# 90825
# 102510
# 119752
# 133205
# 146100
# 160062
# 174762
# 186297
#
# Disc length: 2675 seconds
# Revision: 0
# Processed by: cddbd v1.4PL0 Copyright (c) Steve Scherf et al.
# Submitted via: VisiTrax 2.9.5.181 - For more info visit www.synapsa.com
#
DISCID=cb0a710f
DTITLE=Nat King Cole - Nat King Cole - Legendary Singers (Disk 2 of 2)
DYEAR=2001
DGENRE=R&B
TTITLE0=Pretend
TTITLE1=Answer Me, My Love
TTITLE2=Ramblin' Rose
TTITLE3=Mona Lisa
TTITLE4=China Gate
TTITLE5=Night of the Quarter Moon
TTITLE6=Nature Boy
TTITLE7=L-O-V-E
TTITLE8=The Very Thought Of You
TTITLE9=Return To Paradise
TTITLE10=Darling, Je Vous AIme Beaucoup
TTITLE11=(I Love You) For Sentimental Reasons
TTITLE12=For All We Know
TTITLE13=The Sand And The Sea
TTITLE14=The Christmas SOng (Merry Christmas To You)
EXTD=Heartland Music H605-2 c. 2001 EMI-Capitol Music Special Product.
EXTT0=
EXTT1=
EXTT2=
EXTT3=
EXTT4=
EXTT5=
EXTT6=
EXTT7=
EXTT8=
EXTT9=
EXTT10=
EXTT11=
EXTT12=
EXTT13=
EXTT14=
PLAYORDER=
